<svg width="40" height="35" viewBox="0 0 40 35" fill="none" xmlns="http://www.w3.org/2000/svg">
<path d="M21.3793 22.069V13.7931C21.3793 13.0317 20.7614 12.4138 20 12.4138C19.2386 12.4138 18.6207 13.0317 18.6207 13.7931V22.069C18.6207 22.8304 19.2386 23.4483 20 23.4483C20.7621 23.4483 21.3793 22.8304 21.3793 22.069Z" fill="#AAAAAA"/>
<path d="M15.1724 26.2069V17.931C15.1724 17.1696 14.5545 16.5517 13.7931 16.5517C13.0317 16.5517 12.4138 17.1696 12.4138 17.931V26.2069C12.4138 26.9682 13.0317 27.5862 13.7931 27.5862C14.5552 27.5862 15.1724 26.9682 15.1724 26.2069Z" fill="#AAAAAA"/>
<path d="M27.5862 26.2069V17.931C27.5862 17.1696 26.9683 16.5517 26.2069 16.5517C25.4455 16.5517 24.8276 17.1696 24.8276 17.931V26.2069C24.8276 26.9682 25.4455 27.5862 26.2069 27.5862C26.969 27.5862 27.5862 26.9682 27.5862 26.2069Z" fill="#AAAAAA"/>
<path d="M14.4828 30.3448H13.1034C12.3421 30.3448 11.7241 30.9628 11.7241 31.7242V33.1035C11.7241 33.8648 12.3421 34.4828 13.1034 34.4828H14.4828C15.2441 34.4828 15.8621 33.8648 15.8621 33.1035V31.7242C15.8621 30.9628 15.2448 30.3448 14.4828 30.3448Z" fill="#AAAAAA"/>
<path d="M20.6897 26.2069H19.3103C18.549 26.2069 17.931 26.8248 17.931 27.5862V28.9655C17.931 29.7269 18.549 30.3448 19.3103 30.3448H20.6897C21.451 30.3448 22.069 29.7269 22.069 28.9655V27.5862C22.069 26.8248 21.4517 26.2069 20.6897 26.2069Z" fill="#AAAAAA"/>
<path d="M26.8966 30.3448H25.5172C24.7559 30.3448 24.1379 30.9628 24.1379 31.7242V33.1035C24.1379 33.8648 24.7559 34.4828 25.5172 34.4828H26.8966C27.6579 34.4828 28.2759 33.8648 28.2759 33.1035V31.7242C28.2759 30.9628 27.6586 30.3448 26.8966 30.3448Z" fill="#AAAAAA"/>
<path d="M32.4138 8.27586C32.0634 8.27586 31.6469 8.33034 31.249 8.40276C29.8055 3.45655 25.2855 0 20 0C14.7145 0 10.1945 3.45655 8.75034 8.40276C8.35379 8.33034 7.93655 8.27586 7.58621 8.27586C3.40345 8.27586 0 11.6793 0 15.8621C0 20.0448 3.40345 23.4483 7.58621 23.4483H8.96552C9.7269 23.4483 10.3448 22.8303 10.3448 22.069C10.3448 21.3076 9.7269 20.6897 8.96552 20.6897H7.58621C4.92414 20.6897 2.75862 18.5234 2.75862 15.8621C2.75862 13.2007 4.92414 11.0345 7.58621 11.0345C7.77724 11.0345 8.08483 11.0814 8.40897 11.1462V12.4138C8.40897 13.1752 9.0269 13.7931 9.78828 13.7931C10.5497 13.7931 11.1676 13.1752 11.1676 12.4138V10.1924C11.909 5.88069 15.6076 2.75862 20 2.75862C24.3938 2.75862 28.0924 5.88207 28.8324 10.1952V12.4138C28.8324 13.1752 29.4503 13.7931 30.2117 13.7931C30.9731 13.7931 31.591 13.1752 31.591 12.4138V11.1469C31.9166 11.0821 32.2248 11.0345 32.4138 11.0345C35.0752 11.0345 37.2414 13.2007 37.2414 15.8621C37.2414 18.5234 35.0752 20.6897 32.4138 20.6897H31.0345C30.2731 20.6897 29.6552 21.3076 29.6552 22.069C29.6552 22.8303 30.2731 23.4483 31.0345 23.4483H32.4138C36.5966 23.4483 40 20.0448 40 15.8621C40 11.6793 36.5972 8.27586 32.4138 8.27586Z" fill="#AAAAAA"/>
</svg>
