<svg width="40" height="32" viewBox="0 0 40 32" fill="none" xmlns="http://www.w3.org/2000/svg">
<path d="M31.9736 19.2164C32.5378 18.0725 32.8357 16.8158 32.8357 15.5226C32.8357 10.9136 29.0864 7.16431 24.4774 7.16431C21.7305 7.16431 19.1669 8.52612 17.614 10.759C17.5137 10.756 17.4146 10.7464 17.3137 10.7464C12.7381 10.7464 8.82461 13.7387 7.57564 18.0206C7.23115 17.9579 6.86995 17.9107 6.56726 17.9107C2.94572 17.9107 0 20.857 0 24.478C0 28.0989 2.94572 31.0453 6.56726 31.0453H28.0601C31.6811 31.0453 34.6274 28.0989 34.6274 24.478C34.6274 22.3239 33.5802 20.4147 31.9736 19.2164ZM24.4774 9.5524C27.7694 9.5524 30.4476 12.2307 30.4476 15.5226C30.4476 16.4468 30.2327 17.3436 29.8291 18.1597C29.2649 18.0015 28.6733 17.9107 28.0601 17.9107C27.7568 17.9107 27.3962 17.9579 27.0511 18.0206C26.0911 14.7304 23.5562 12.2086 20.3585 11.2139C21.4558 10.1673 22.9233 9.5524 24.4774 9.5524ZM28.0601 28.6572H6.56726C4.26335 28.6572 2.3881 26.7819 2.3881 24.478C2.3881 22.1741 4.26335 20.2988 6.56726 20.2988C6.73264 20.2988 6.99891 20.3394 7.27951 20.3955V21.4929C7.27951 22.152 7.81445 22.6869 8.47356 22.6869C9.13267 22.6869 9.66761 22.152 9.66761 21.4929V19.5711C10.3082 15.8379 13.5101 13.1345 17.3137 13.1345C21.1179 13.1345 24.3204 15.8391 24.9598 19.574V21.4929C24.9598 22.152 25.4947 22.6869 26.1538 22.6869C26.8129 22.6869 27.3479 22.152 27.3479 21.4929V20.3961C27.6291 20.34 27.8965 20.2988 28.0601 20.2988C30.364 20.2988 32.2393 22.1741 32.2393 24.478C32.2393 26.7819 30.364 28.6572 28.0601 28.6572Z" fill="#AAAAAA"/>
<path d="M24.4774 4.77619C25.1365 4.77619 25.6714 4.24126 25.6714 3.58214V1.19405C25.6714 0.534933 25.1365 0 24.4774 0C23.8177 0 23.2833 0.534933 23.2833 1.19405V3.58214C23.2833 4.24126 23.8177 4.77619 24.4774 4.77619Z" fill="#AAAAAA"/>
<path d="M38.8059 14.3286H36.4178C35.7581 14.3286 35.2238 14.8635 35.2238 15.5226C35.2238 16.1817 35.7581 16.7166 36.4178 16.7166H38.8059C39.4651 16.7166 40 16.1817 40 15.5226C40 14.8635 39.4651 14.3286 38.8059 14.3286Z" fill="#AAAAAA"/>
<path d="M32.9211 8.27292C33.2268 8.27292 33.5318 8.1565 33.7653 7.92307L35.4537 6.23468C35.9199 5.76841 35.9199 5.01258 35.4537 4.5463C34.9874 4.08003 34.2316 4.08003 33.7653 4.5463L32.0769 6.23468C31.6106 6.70096 31.6106 7.45679 32.0769 7.92307C32.3097 8.1565 32.6154 8.27292 32.9211 8.27292Z" fill="#AAAAAA"/>
<path d="M15.1895 7.92307C15.4229 8.1565 15.728 8.27292 16.0337 8.27292C16.3394 8.27292 16.6444 8.1565 16.8779 7.92307C17.3441 7.45679 17.3441 6.70096 16.8779 6.23468L15.1895 4.5463C14.7232 4.08003 13.9674 4.08003 13.5011 4.5463C13.0348 5.01258 13.0348 5.76841 13.5011 6.23468L15.1895 7.92307Z" fill="#AAAAAA"/>
</svg>
