<svg width="40" height="36" viewBox="0 0 40 36" fill="none" xmlns="http://www.w3.org/2000/svg">
<path d="M32.4138 8.27586C32.0641 8.27586 31.6469 8.33034 31.2497 8.40276C29.8048 3.45655 25.2848 0 20 0C14.7152 0 10.1945 3.45655 8.75103 8.40276C8.3531 8.33034 7.93586 8.27586 7.58621 8.27586C3.40345 8.27586 0 11.6793 0 15.8621C0 20.0448 3.40345 23.4483 7.58621 23.4483C8.34759 23.4483 8.96552 22.8303 8.96552 22.069C8.96552 21.3076 8.34759 20.6897 7.58621 20.6897C4.92414 20.6897 2.75862 18.5234 2.75862 15.8621C2.75862 13.2007 4.92414 11.0345 7.58621 11.0345C7.77724 11.0345 8.08483 11.0814 8.40897 11.1462V12.4138C8.40897 13.1752 9.0269 13.7931 9.78828 13.7931C10.5497 13.7931 11.1676 13.1752 11.1676 12.4138V10.1924C11.9083 5.88069 15.6069 2.75862 20 2.75862C24.3931 2.75862 28.091 5.88069 28.8324 10.1924V12.4138C28.8324 13.1752 29.4503 13.7931 30.2117 13.7931C30.9731 13.7931 31.591 13.1752 31.591 12.4138V11.1462C31.9152 11.0814 32.2221 11.0345 32.4138 11.0345C35.0752 11.0345 37.2414 13.2007 37.2414 15.8621C37.2414 18.5234 35.0752 20.6897 32.4138 20.6897C31.6524 20.6897 31.0345 21.3076 31.0345 22.069C31.0345 22.8303 31.6524 23.4483 32.4138 23.4483C36.5966 23.4483 40 20.0448 40 15.8621C40 11.6793 36.5966 8.27586 32.4138 8.27586Z" fill="#AAAAAA"/>
<path d="M21.0242 16.5931C20.2842 16.4069 19.5359 16.8579 19.351 17.5966L15.2131 34.1483C15.0283 34.8876 15.4779 35.6359 16.2166 35.8214C16.329 35.849 16.4414 35.8621 16.5524 35.8621C17.1704 35.8621 17.7324 35.4442 17.8897 34.8173L22.0276 18.2655C22.2124 17.5262 21.7635 16.7779 21.0242 16.5931Z" fill="#AAAAAA"/>
<path d="M26.5407 20.731C25.8014 20.5441 25.0531 20.9959 24.8683 21.7345L22.7993 30.0103C22.6145 30.7497 23.0642 31.4986 23.8035 31.6835C23.9159 31.7117 24.0283 31.7248 24.1386 31.7248C24.7566 31.7248 25.3193 31.3069 25.4759 30.68L27.5442 22.4041C27.7297 21.6641 27.28 20.9152 26.5407 20.731Z" fill="#AAAAAA"/>
<path d="M13.4373 20.731C12.7 20.5441 11.9497 20.9959 11.7648 21.7345L9.69587 30.0103C9.51105 30.7497 9.9607 31.4986 10.7 31.6835C10.8124 31.7117 10.9248 31.7248 11.0352 31.7248C11.6531 31.7248 12.2159 31.3069 12.3724 30.68L14.4414 22.4041C14.6262 21.6641 14.1766 20.9152 13.4373 20.731Z" fill="#AAAAAA"/>
</svg>
