<svg width="40" height="36" viewBox="0 0 40 36" fill="none" xmlns="http://www.w3.org/2000/svg">
<path d="M32.4138 8.27586C32.0634 8.27586 31.6469 8.33034 31.249 8.40276C29.8055 3.45655 25.2848 0 20 0C14.7145 0 10.1938 3.45655 8.75034 8.40276C8.3531 8.33034 7.93586 8.27586 7.58621 8.27586C3.40345 8.27586 0 11.6793 0 15.8621C0 20.0448 3.40345 23.4483 7.58621 23.4483H15.3538L12.6455 27.511C12.3634 27.9338 12.3372 28.4779 12.5766 28.9269C12.8172 29.3752 13.2848 29.6552 13.7931 29.6552H15.3538L12.6455 33.7179C12.2234 34.3517 12.3945 35.2083 13.0283 35.6303C13.2628 35.7876 13.529 35.8621 13.7917 35.8621C14.2372 35.8621 14.6745 35.6462 14.9407 35.2476L19.0786 29.0407C19.3607 28.6179 19.3869 28.0738 19.1476 27.6248C18.9069 27.1766 18.4393 26.8966 17.931 26.8966H16.3703L18.669 23.4483H22.2497L20.9207 25.4421C20.6386 25.8648 20.6124 26.409 20.8517 26.8579C21.0931 27.3062 21.5607 27.5862 22.069 27.5862H23.6297L22.3007 29.58C21.8786 30.2138 22.0497 31.0703 22.6834 31.4924C22.9179 31.6497 23.1841 31.7241 23.4469 31.7241C23.8924 31.7241 24.3297 31.5083 24.5959 31.1097L27.3545 26.9717C27.6366 26.549 27.6628 26.0048 27.4234 25.5559C27.1828 25.1076 26.7152 24.8276 26.2069 24.8276H24.6462L25.5655 23.4483H32.4138C36.5966 23.4483 40 20.0448 40 15.8621C40 11.6793 36.5966 8.27586 32.4138 8.27586ZM32.4138 20.6897H7.58621C4.92483 20.6897 2.75862 18.5234 2.75862 15.8621C2.75862 13.2007 4.92483 11.0345 7.58621 11.0345C7.77724 11.0345 8.08483 11.0814 8.40897 11.1462V12.4138C8.40897 13.1752 9.02621 13.7931 9.78828 13.7931C10.5503 13.7931 11.1676 13.1752 11.1676 12.4138V10.1938C11.9076 5.88138 15.6062 2.75862 20 2.75862C24.3931 2.75862 28.0917 5.88138 28.8324 10.1945V12.4138C28.8324 13.1752 29.4503 13.7931 30.2117 13.7931C30.9731 13.7931 31.591 13.1752 31.591 12.4138V11.1469C31.9152 11.0821 32.2248 11.0345 32.4138 11.0345C35.0752 11.0345 37.2414 13.2007 37.2414 15.8621C37.2414 18.5234 35.0752 20.6897 32.4138 20.6897Z" fill="#AAAAAA"/>
</svg>
