<svg width="40" height="22" viewBox="0 0 40 22" fill="none" xmlns="http://www.w3.org/2000/svg">
<path d="M14.375 2.5H21.875C22.565 2.5 23.125 1.94 23.125 1.25C23.125 0.56 22.565 0 21.875 0H14.375C13.6844 0 13.125 0.56 13.125 1.25C13.125 1.94 13.6844 2.5 14.375 2.5Z" fill="#AAAAAA"/>
<path d="M6.875 6.25H21.875C22.565 6.25 23.125 5.69 23.125 5C23.125 4.31 22.565 3.75 21.875 3.75H6.875C6.18437 3.75 5.625 4.31 5.625 5C5.625 5.69 6.18437 6.25 6.875 6.25Z" fill="#AAAAAA"/>
<path d="M3.12439 10H18.125C18.815 10 19.375 9.44 19.375 8.75C19.375 8.06 18.815 7.5 18.125 7.5H3.12439C2.43376 7.5 1.87439 8.06 1.87439 8.75C1.87439 9.44 2.43376 10 3.12439 10Z" fill="#AAAAAA"/>
<path d="M40 12.5C40 11.81 39.44 11.25 38.75 11.25H1.25C0.559375 11.25 0 11.81 0 12.5C0 13.19 0.559375 13.75 1.25 13.75H38.75C39.44 13.75 40 13.19 40 12.5Z" fill="#AAAAAA"/>
<path d="M38.75 15H3.125C2.43437 15 1.875 15.56 1.875 16.25C1.875 16.94 2.43437 17.5 3.125 17.5H38.75C39.44 17.5 40 16.94 40 16.25C40 15.56 39.44 15 38.75 15Z" fill="#AAAAAA"/>
<path d="M14.375 18.75L6.875 18.7494C6.18437 18.7494 5.625 19.3094 5.625 19.9994C5.625 20.6894 6.18437 21.2494 6.875 21.2494L14.375 21.25C15.065 21.25 15.625 20.69 15.625 20C15.625 19.31 15.065 18.75 14.375 18.75Z" fill="#AAAAAA"/>
<path d="M26.25 6.25H31.25C31.94 6.25 32.5 5.69 32.5 5C32.5 4.31 31.94 3.75 31.25 3.75H26.25C25.5594 3.75 25 4.31 25 5C25 5.69 25.5594 6.25 26.25 6.25Z" fill="#AAAAAA"/>
<path d="M20.625 8.75C20.625 9.44 21.1844 10 21.875 10H35C35.69 10 36.25 9.44 36.25 8.75C36.25 8.06 35.69 7.5 35 7.5H21.875C21.1844 7.5 20.625 8.06 20.625 8.75Z" fill="#AAAAAA"/>
<path d="M35 18.7494L18.125 18.75C17.4344 18.75 16.875 19.31 16.875 20C16.875 20.69 17.4344 21.25 18.125 21.25L35 21.2494C35.69 21.2494 36.25 20.6894 36.25 19.9994C36.25 19.3094 35.69 18.7494 35 18.7494Z" fill="#AAAAAA"/>
</svg>
