<svg width="40" height="24" viewBox="0 0 40 24" fill="none" xmlns="http://www.w3.org/2000/svg">
<path d="M32.4138 8.27586C32.0641 8.27586 31.6469 8.33034 31.2497 8.40276C29.8055 3.45655 25.2848 0 20 0C14.7145 0 10.1945 3.45655 8.75034 8.40276C8.3531 8.33034 7.93586 8.27586 7.58621 8.27586C3.40345 8.27586 0 11.6793 0 15.8621C0 20.0448 3.40345 23.4483 7.58621 23.4483H32.4138C36.5966 23.4483 40 20.0448 40 15.8621C40 11.6793 36.5966 8.27586 32.4138 8.27586ZM32.4138 20.6897H7.58621C4.92414 20.6897 2.75862 18.5234 2.75862 15.8621C2.75862 13.2007 4.92414 11.0345 7.58621 11.0345C7.77724 11.0345 8.08483 11.0814 8.40966 11.1462V12.4138C8.40966 13.1752 9.02759 13.7931 9.78897 13.7931C10.5503 13.7931 11.1683 13.1752 11.1683 12.4138V10.189C11.9103 5.87862 15.6083 2.75862 20 2.75862C24.3938 2.75862 28.0931 5.88207 28.8331 10.1959V12.4138C28.8331 13.1752 29.451 13.7931 30.2124 13.7931C30.9745 13.7931 31.5917 13.1752 31.5917 12.4138V11.1469C31.9159 11.0821 32.2248 11.0345 32.4138 11.0345C35.0752 11.0345 37.2414 13.2007 37.2414 15.8621C37.2414 18.5234 35.0752 20.6897 32.4138 20.6897Z" fill="#AAAAAA"/>
</svg>
