<svg width="34" height="40" viewBox="0 0 34 40" fill="none" xmlns="http://www.w3.org/2000/svg">
<path d="M28.7086 13.9931C30.3846 12.5063 31.4286 10.3394 31.4286 8C31.4286 7.36914 30.9166 6.85714 30.2857 6.85714C27.1349 6.85714 24.5714 4.29371 24.5714 1.14286C24.5714 0.512 24.0594 0 23.4286 0C19.384 0 16.0394 3.01943 15.5103 6.92057C11.5971 7.34171 8.34857 10.0566 7.25086 13.8189C6.92114 13.7594 6.57543 13.7143 6.28571 13.7143C2.82 13.7143 0 16.5343 0 20C0 23.4657 2.82 26.2857 6.28571 26.2857H26.8571C30.3229 26.2857 33.1429 23.4657 33.1429 20C33.1429 17.1783 31.2731 14.7857 28.7086 13.9931ZM22.3817 2.38171C22.9154 5.80171 25.6246 8.512 29.0446 9.04686C28.6931 10.9017 27.4217 12.4789 25.6949 13.2331C24.464 9.83429 21.4394 7.40114 17.8137 6.94286C18.2474 4.63486 20.072 2.81143 22.3817 2.38171ZM26.8571 24H6.28571C4.08057 24 2.28571 22.2051 2.28571 20C2.28571 17.7949 4.08057 16 6.28571 16C6.444 16 6.69943 16.0389 6.968 16.0926V17.1429C6.968 17.7737 7.48 18.2857 8.11086 18.2857C8.74171 18.2857 9.25371 17.7737 9.25371 17.1429V15.3006C9.868 11.7286 12.932 9.14286 16.5714 9.14286C20.2126 9.14286 23.2777 11.7314 23.8903 15.3069V17.1429C23.8903 17.7737 24.4023 18.2857 25.0331 18.2857C25.664 18.2857 26.176 17.7737 26.176 17.1429V16.0931C26.4446 16.0394 26.7006 16 26.8571 16C29.0623 16 30.8571 17.7949 30.8571 20C30.8571 22.2051 29.0623 24 26.8571 24Z" fill="#AAAAAA"/>
<path d="M11.4286 29.7143C12.0597 29.7143 12.5714 29.2026 12.5714 28.5714C12.5714 27.9403 12.0597 27.4286 11.4286 27.4286C10.7974 27.4286 10.2857 27.9403 10.2857 28.5714C10.2857 29.2026 10.7974 29.7143 11.4286 29.7143Z" fill="#AAAAAA"/>
<path d="M21.7143 29.7143C22.3455 29.7143 22.8571 29.2026 22.8571 28.5714C22.8571 27.9403 22.3455 27.4286 21.7143 27.4286C21.0831 27.4286 20.5714 27.9403 20.5714 28.5714C20.5714 29.2026 21.0831 29.7143 21.7143 29.7143Z" fill="#AAAAAA"/>
<path d="M16.5714 33.1428C17.2026 33.1428 17.7143 32.6312 17.7143 32C17.7143 31.3688 17.2026 30.8571 16.5714 30.8571C15.9403 30.8571 15.4286 31.3688 15.4286 32C15.4286 32.6312 15.9403 33.1428 16.5714 33.1428Z" fill="#AAAAAA"/>
<path d="M21.7143 36.5714C22.3455 36.5714 22.8571 36.0597 22.8571 35.4286C22.8571 34.7974 22.3455 34.2857 21.7143 34.2857C21.0831 34.2857 20.5714 34.7974 20.5714 35.4286C20.5714 36.0597 21.0831 36.5714 21.7143 36.5714Z" fill="#AAAAAA"/>
<path d="M16.5714 40C17.2026 40 17.7143 39.4883 17.7143 38.8572C17.7143 38.226 17.2026 37.7143 16.5714 37.7143C15.9403 37.7143 15.4286 38.226 15.4286 38.8572C15.4286 39.4883 15.9403 40 16.5714 40Z" fill="#AAAAAA"/>
<path d="M11.4286 36.5714C12.0597 36.5714 12.5714 36.0597 12.5714 35.4286C12.5714 34.7974 12.0597 34.2857 11.4286 34.2857C10.7974 34.2857 10.2857 34.7974 10.2857 35.4286C10.2857 36.0597 10.7974 36.5714 11.4286 36.5714Z" fill="#AAAAAA"/>
</svg>
