<svg width="24" height="20" viewBox="0 0 24 20" fill="none" xmlns="http://www.w3.org/2000/svg">
<path d="M19.3043 1.13043C16.715 1.13043 14.6087 3.23721 14.6087 5.82608C14.6087 6.11408 14.8419 6.34782 15.1304 6.34782C15.419 6.34782 15.6522 6.11408 15.6522 5.82608C15.6522 3.81217 17.291 2.17391 19.3043 2.17391C21.3177 2.17391 22.9565 3.81217 22.9565 5.82608C22.9565 7.84 21.3177 9.47826 19.3043 9.47826H0.521739C0.233739 9.47826 0 9.712 0 10C0 10.288 0.233739 10.5217 0.521739 10.5217H19.3043C21.8937 10.5217 24 8.41495 24 5.82608C24 3.23721 21.8937 1.13043 19.3043 1.13043Z" fill="#AAAAAA"/>
<path d="M9.3913 0.0869598C7.37739 0.0869598 5.73913 1.72522 5.73913 3.73913C5.73913 4.02713 5.97287 4.26087 6.26087 4.26087C6.54887 4.26087 6.78261 4.02713 6.78261 3.73913C6.78261 2.3007 7.95287 1.13044 9.3913 1.13044C10.8297 1.13044 12 2.3007 12 3.73913C12 5.17757 10.8297 6.34783 9.3913 6.34783H0.521739C0.233739 6.34783 0 6.58157 0 6.86957C0 7.15757 0.233739 7.39131 0.521739 7.39131H9.3913C11.4052 7.39131 13.0435 5.75305 13.0435 3.73913C13.0435 1.72522 11.4052 0.0869598 9.3913 0.0869598Z" fill="#AAAAAA"/>
<path d="M18.2609 12.6087H0.521739C0.233739 12.6087 0 12.8424 0 13.1304C0 13.4184 0.233739 13.6522 0.521739 13.6522H18.2609C19.6993 13.6522 20.8696 14.8224 20.8696 16.2609C20.8696 17.6993 19.6993 18.8696 18.2609 18.8696C16.8224 18.8696 15.6522 17.6993 15.6522 16.2609C15.6522 15.9729 15.419 15.7391 15.1304 15.7391C14.8419 15.7391 14.6087 15.9729 14.6087 16.2609C14.6087 18.2748 16.2475 19.913 18.2609 19.913C20.2743 19.913 21.913 18.2748 21.913 16.2609C21.913 14.247 20.2743 12.6087 18.2609 12.6087Z" fill="#AAAAAA"/>
</svg>
