<svg width="22" height="22" viewBox="0 0 22 22" fill="none" xmlns="http://www.w3.org/2000/svg">
<path d="M20.0107 9.23571C15.7669 9.23571 12.3143 5.7831 12.3143 1.53929C12.3143 0.6896 11.6247 0 10.775 0C4.83336 0 0 4.83336 0 10.775C0 16.7166 4.83336 21.55 10.775 21.55C16.7166 21.55 21.55 16.7166 21.55 10.775C21.55 9.92531 20.8604 9.23571 20.0107 9.23571ZM10.775 18.4714C6.53119 18.4714 3.07857 15.0188 3.07857 10.775C3.07857 7.01299 5.79156 3.87207 9.36501 3.20787C10.0839 7.81495 13.7343 11.4654 18.3421 12.185C17.6779 15.7584 14.5378 18.4714 10.775 18.4714Z" fill="#AAAAAA"/>
</svg>
