<svg width="40" height="40" viewBox="0 0 40 40" fill="none" xmlns="http://www.w3.org/2000/svg">
<path d="M30.8785 10.66C31.2723 10.66 31.6662 10.51 31.9662 10.2092L34.1423 8.03308C34.7431 7.43231 34.7431 6.45846 34.1423 5.85769C33.5415 5.25692 32.5669 5.25692 31.9669 5.85769L29.7908 8.03385C29.19 8.63462 29.19 9.60846 29.7908 10.2092C30.0908 10.51 30.4846 10.66 30.8785 10.66ZM6.15385 20C6.15385 19.1508 5.46462 18.4615 4.61538 18.4615H1.53846C0.689231 18.4615 0 19.1508 0 20C0 20.8492 0.689231 21.5385 1.53846 21.5385H4.61538C5.46462 21.5385 6.15385 20.8492 6.15385 20ZM8.03385 29.7908L5.85769 31.9669C5.25692 32.5677 5.25692 33.5415 5.85769 34.1423C6.15769 34.4431 6.55154 34.5931 6.94538 34.5931C7.33923 34.5931 7.73308 34.4431 8.03308 34.1423L10.2092 31.9662C10.81 31.3654 10.81 30.3915 10.2092 29.7908C9.60923 29.19 8.63385 29.19 8.03385 29.7908ZM8.03385 10.2092C8.33385 10.51 8.72769 10.66 9.12154 10.66C9.51539 10.66 9.90923 10.51 10.2092 10.2092C10.81 9.60846 10.81 8.63462 10.2092 8.03385L8.03308 5.85769C7.43308 5.25692 6.45769 5.25692 5.85769 5.85769C5.25692 6.45846 5.25692 7.43231 5.85769 8.03308L8.03385 10.2092ZM20 6.15385C20.8492 6.15385 21.5385 5.46462 21.5385 4.61538V1.53846C21.5385 0.689231 20.8492 0 20 0C19.1508 0 18.4615 0.689231 18.4615 1.53846V4.61538C18.4615 5.46462 19.1508 6.15385 20 6.15385ZM38.4615 18.4615H35.3846C34.5354 18.4615 33.8462 19.1508 33.8462 20C33.8462 20.8492 34.5354 21.5385 35.3846 21.5385H38.4615C39.3108 21.5385 40 20.8492 40 20C40 19.1508 39.3108 18.4615 38.4615 18.4615ZM31.9662 29.7908C31.3662 29.19 30.3908 29.19 29.7908 29.7908C29.19 30.3915 29.19 31.3654 29.7908 31.9662L31.9669 34.1423C32.2669 34.4431 32.6608 34.5931 33.0546 34.5931C33.4485 34.5931 33.8415 34.4431 34.1423 34.1423C34.7431 33.5415 34.7431 32.5677 34.1423 31.9669L31.9662 29.7908ZM20 33.8462C19.1508 33.8462 18.4615 34.5354 18.4615 35.3846V38.4615C18.4615 39.3108 19.1508 40 20 40C20.8492 40 21.5385 39.3108 21.5385 38.4615V35.3846C21.5385 34.5354 20.8492 33.8462 20 33.8462ZM20 9.23077C14.0615 9.23077 9.23077 14.0615 9.23077 20C9.23077 25.9385 14.0615 30.7692 20 30.7692C25.9385 30.7692 30.7692 25.9385 30.7692 20C30.7692 14.0615 25.9385 9.23077 20 9.23077ZM20 27.6923C15.7585 27.6923 12.3077 24.2415 12.3077 20C12.3077 15.7585 15.7585 12.3077 20 12.3077C24.2415 12.3077 27.6923 15.7585 27.6923 20C27.6923 24.2415 24.2415 27.6923 20 27.6923Z" fill="#AAAAAA"/>
</svg>
