<svg width="40" height="40" viewBox="0 0 40 40" fill="none" xmlns="http://www.w3.org/2000/svg">
<path d="M20 34.4828C19.2379 34.4828 18.6207 35.1007 18.6207 35.8621V38.6207C18.6207 39.3821 19.2379 40 20 40C20.7614 40 21.3793 39.3821 21.3793 38.6207V35.8621C21.3793 35.1007 20.7614 34.4828 20 34.4828ZM13.7931 30.3448C13.031 30.3448 12.4138 30.9628 12.4138 31.7241V34.4828C12.4138 35.2441 13.031 35.8621 13.7931 35.8621C14.5545 35.8621 15.1724 35.2441 15.1724 34.4828V31.7241C15.1724 30.9628 14.5545 30.3448 13.7931 30.3448ZM26.2069 30.3448C25.4448 30.3448 24.8276 30.9628 24.8276 31.7241V34.4828C24.8276 35.2441 25.4448 35.8621 26.2069 35.8621C26.9683 35.8621 27.5862 35.2441 27.5862 34.4828V31.7241C27.5862 30.9628 26.9683 30.3448 26.2069 30.3448ZM32.4138 8.27586C32.0634 8.27586 31.6469 8.33034 31.249 8.40276C29.8055 3.45655 25.2848 0 20 0C14.7145 0 10.1938 3.45655 8.75034 8.40276C8.3531 8.33034 7.93586 8.27586 7.58621 8.27586C3.40345 8.27586 0 11.6793 0 15.8621C0 20.0448 3.40345 23.4483 7.58621 23.4483H12.4138V26.2069C12.4138 26.9683 13.031 27.5862 13.7931 27.5862C14.5545 27.5862 15.1724 26.9683 15.1724 26.2069V23.4483H24.8276V26.2069C24.8276 26.9683 25.4448 27.5862 26.2069 27.5862C26.9683 27.5862 27.5862 26.9683 27.5862 26.2069V23.4483H32.4138C36.5966 23.4483 40 20.0448 40 15.8621C40 11.6793 36.5966 8.27586 32.4138 8.27586ZM32.4138 20.6897H7.58621C4.92483 20.6897 2.75862 18.5234 2.75862 15.8621C2.75862 13.2007 4.92483 11.0345 7.58621 11.0345C7.77724 11.0345 8.08483 11.0814 8.40897 11.1462V12.4138C8.40897 13.1752 9.02621 13.7931 9.78828 13.7931C10.5503 13.7931 11.1676 13.1752 11.1676 12.4138V10.1938C11.9076 5.88138 15.6062 2.75862 20 2.75862C24.3931 2.75862 28.0917 5.88138 28.8324 10.1945V12.4138C28.8324 13.1752 29.4503 13.7931 30.2117 13.7931C30.9731 13.7931 31.591 13.1752 31.591 12.4138V11.1469C31.9152 11.0821 32.2248 11.0345 32.4138 11.0345C35.0752 11.0345 37.2414 13.2007 37.2414 15.8621C37.2414 18.5234 35.0752 20.6897 32.4138 20.6897ZM20 26.2069C19.2379 26.2069 18.6207 26.8248 18.6207 27.5862V30.3448C18.6207 31.1062 19.2379 31.7241 20 31.7241C20.7614 31.7241 21.3793 31.1062 21.3793 30.3448V27.5862C21.3793 26.8248 20.7614 26.2069 20 26.2069Z" fill="#AAAAAA"/>
</svg>
