<svg width="40" height="40" viewBox="0 0 40 40" fill="none" xmlns="http://www.w3.org/2000/svg">
<path d="M32.4138 8.27586C32.0641 8.27586 31.6469 8.33034 31.249 8.40276C29.8055 3.45655 25.2848 0 20 0C14.7145 0 10.1938 3.45655 8.75034 8.40276C8.3531 8.33034 7.93655 8.27586 7.58621 8.27586C3.40345 8.27586 0 11.6793 0 15.8621C0 20.0448 3.40345 23.4483 7.58621 23.4483H32.4138C36.5966 23.4483 40 20.0448 40 15.8621C40 11.6793 36.5966 8.27586 32.4138 8.27586ZM32.4138 20.6897H7.58621C4.92483 20.6897 2.75862 18.5234 2.75862 15.8621C2.75862 13.2007 4.92483 11.0345 7.58621 11.0345C7.77724 11.0345 8.08483 11.0814 8.40966 11.1462V12.4138C8.40966 13.1752 9.02759 13.7931 9.78897 13.7931C10.5503 13.7931 11.1683 13.1752 11.1683 12.4138V10.189C11.9097 5.87862 15.6083 2.75862 20 2.75862C24.3938 2.75862 28.0931 5.88207 28.8331 10.1959V12.4138C28.8331 13.1752 29.451 13.7931 30.2124 13.7931C30.9738 13.7931 31.5917 13.1752 31.5917 12.4138V11.1469C31.9159 11.0821 32.2248 11.0345 32.4138 11.0345C35.0752 11.0345 37.2414 13.2007 37.2414 15.8621C37.2414 18.5234 35.0752 20.6897 32.4138 20.6897Z" fill="#AAAAAA"/>
<path d="M13.7931 27.5862C14.5549 27.5862 15.1724 26.9687 15.1724 26.2069C15.1724 25.4451 14.5549 24.8276 13.7931 24.8276C13.0314 24.8276 12.4138 25.4451 12.4138 26.2069C12.4138 26.9687 13.0314 27.5862 13.7931 27.5862Z" fill="#AAAAAA"/>
<path d="M26.2069 27.5862C26.9687 27.5862 27.5862 26.9687 27.5862 26.2069C27.5862 25.4451 26.9687 24.8276 26.2069 24.8276C25.4451 24.8276 24.8276 25.4451 24.8276 26.2069C24.8276 26.9687 25.4451 27.5862 26.2069 27.5862Z" fill="#AAAAAA"/>
<path d="M20 31.7241C20.7617 31.7241 21.3793 31.1066 21.3793 30.3448C21.3793 29.5831 20.7617 28.9655 20 28.9655C19.2382 28.9655 18.6207 29.5831 18.6207 30.3448C18.6207 31.1066 19.2382 31.7241 20 31.7241Z" fill="#AAAAAA"/>
<path d="M26.2069 35.8621C26.9687 35.8621 27.5862 35.2445 27.5862 34.4828C27.5862 33.721 26.9687 33.1035 26.2069 33.1035C25.4451 33.1035 24.8276 33.721 24.8276 34.4828C24.8276 35.2445 25.4451 35.8621 26.2069 35.8621Z" fill="#AAAAAA"/>
<path d="M20 40C20.7617 40 21.3793 39.3825 21.3793 38.6207C21.3793 37.8589 20.7617 37.2414 20 37.2414C19.2382 37.2414 18.6207 37.8589 18.6207 38.6207C18.6207 39.3825 19.2382 40 20 40Z" fill="#AAAAAA"/>
<path d="M13.7931 35.8621C14.5549 35.8621 15.1724 35.2445 15.1724 34.4828C15.1724 33.721 14.5549 33.1035 13.7931 33.1035C13.0314 33.1035 12.4138 33.721 12.4138 34.4828C12.4138 35.2445 13.0314 35.8621 13.7931 35.8621Z" fill="#AAAAAA"/>
</svg>
