<svg width="40" height="32" viewBox="0 0 40 32" fill="none" xmlns="http://www.w3.org/2000/svg">
<path d="M34.6483 16.8883C36.671 15.0938 37.931 12.4786 37.931 9.65517C37.931 8.89379 37.3131 8.27586 36.5517 8.27586C32.749 8.27586 29.6552 5.18207 29.6552 1.37931C29.6552 0.617931 29.0372 0 28.2759 0C23.3945 0 19.3579 3.64414 18.7193 8.35241C13.9966 8.86069 10.0759 12.1372 8.75103 16.6779C8.3531 16.6062 7.93586 16.5517 7.58621 16.5517C3.40345 16.5517 0 19.9552 0 24.1379C0 28.3207 3.40345 31.7241 7.58621 31.7241H32.4138C36.5966 31.7241 40 28.3207 40 24.1379C40 20.7324 37.7434 17.8448 34.6483 16.8883ZM27.0124 2.87448C27.6566 7.00207 30.9262 10.2731 35.0538 10.9186C34.6297 13.1572 33.0952 15.0607 31.011 15.971C29.5255 11.869 25.8752 8.93241 21.4993 8.37931C22.0228 5.59379 24.2248 3.3931 27.0124 2.87448ZM32.4138 28.9655H7.58621C4.92483 28.9655 2.75862 26.7993 2.75862 24.1379C2.75862 21.4766 4.92483 19.3103 7.58621 19.3103C7.77724 19.3103 8.08552 19.3572 8.40966 19.4221V20.6897C8.40966 21.451 9.02759 22.069 9.78897 22.069C10.5503 22.069 11.1683 21.451 11.1683 20.6897V18.4662C11.9097 14.1552 15.6076 11.0345 20 11.0345C24.3945 11.0345 28.0938 14.1586 28.8331 18.4738V20.6897C28.8331 21.451 29.451 22.069 30.2124 22.069C30.9738 22.069 31.5917 21.451 31.5917 20.6897V19.4228C31.9159 19.3579 32.2248 19.3103 32.4138 19.3103C35.0752 19.3103 37.2414 21.4766 37.2414 24.1379C37.2414 26.7993 35.0752 28.9655 32.4138 28.9655Z" fill="#AAAAAA"/>
</svg>
