<svg width="34" height="40" viewBox="0 0 34 40" fill="none" xmlns="http://www.w3.org/2000/svg">
<path d="M28.7086 13.9931C30.3846 12.5063 31.4286 10.3394 31.4286 8C31.4286 7.36914 30.9166 6.85714 30.2857 6.85714C27.1349 6.85714 24.5714 4.29371 24.5714 1.14286C24.5714 0.512 24.0594 0 23.4286 0C19.384 0 16.04 3.01943 15.5103 6.92057C11.5971 7.34229 8.34857 10.0571 7.25029 13.8194C6.92114 13.7594 6.57543 13.7143 6.28571 13.7143C2.82 13.7143 0 16.5343 0 20C0 23.4657 2.82 26.2857 6.28571 26.2857H10.2857V28.5714C10.2857 29.2023 10.7977 29.7143 11.4286 29.7143C12.0594 29.7143 12.5714 29.2023 12.5714 28.5714V26.2857H20.5714V28.5714C20.5714 29.2023 21.0834 29.7143 21.7143 29.7143C22.3451 29.7143 22.8571 29.2023 22.8571 28.5714V26.2857H26.8571C30.3229 26.2857 33.1429 23.4657 33.1429 20C33.1429 17.1783 31.2737 14.7857 28.7086 13.9931ZM22.3811 2.38171C22.9154 5.80171 25.6246 8.512 29.0446 9.04686C28.6931 10.9017 27.4217 12.4789 25.6949 13.2331C24.4634 9.83429 21.4389 7.40114 17.8137 6.94286C18.2474 4.63486 20.0714 2.81143 22.3811 2.38171ZM26.8571 24H6.28571C4.08 24 2.28571 22.2051 2.28571 20C2.28571 17.7949 4.08 16 6.28571 16C6.444 16 6.69886 16.0389 6.96743 16.0926V17.1429C6.96743 17.7737 7.47943 18.2857 8.11029 18.2857C8.74114 18.2857 9.25314 17.7737 9.25314 17.1429V15.3023C9.86743 11.7297 12.9314 9.14286 16.5714 9.14286C20.2109 9.14286 23.2754 11.7297 23.8897 15.3023V17.1429C23.8897 17.7737 24.4017 18.2857 25.0326 18.2857C25.6634 18.2857 26.1754 17.7737 26.1754 17.1429V16.0931C26.444 16.0394 26.7006 16 26.8571 16C29.0623 16 30.8571 17.7949 30.8571 20C30.8571 22.2051 29.0623 24 26.8571 24Z" fill="#AAAAAA"/>
<path d="M16.5714 28.5714C15.9406 28.5714 15.4286 29.0834 15.4286 29.7143V32C15.4286 32.6308 15.9406 33.1428 16.5714 33.1428C17.2023 33.1428 17.7143 32.6308 17.7143 32V29.7143C17.7143 29.0834 17.2023 28.5714 16.5714 28.5714Z" fill="#AAAAAA"/>
<path d="M16.5714 35.4286C15.9406 35.4286 15.4286 35.9406 15.4286 36.5714V38.8572C15.4286 39.488 15.9406 40 16.5714 40C17.2023 40 17.7143 39.488 17.7143 38.8572V36.5714C17.7143 35.9406 17.2023 35.4286 16.5714 35.4286Z" fill="#AAAAAA"/>
<path d="M11.4286 32C10.7977 32 10.2857 32.512 10.2857 33.1429V35.4286C10.2857 36.0594 10.7977 36.5714 11.4286 36.5714C12.0594 36.5714 12.5714 36.0594 12.5714 35.4286V33.1429C12.5714 32.512 12.0594 32 11.4286 32Z" fill="#AAAAAA"/>
<path d="M21.7143 32C21.0834 32 20.5714 32.512 20.5714 33.1429V35.4286C20.5714 36.0594 21.0834 36.5714 21.7143 36.5714C22.3451 36.5714 22.8571 36.0594 22.8571 35.4286V33.1429C22.8571 32.512 22.3451 32 21.7143 32Z" fill="#AAAAAA"/>
</svg>
