<svg width="37" height="40" viewBox="0 0 37 40" fill="none" xmlns="http://www.w3.org/2000/svg">
<path d="M31.3995 15.3048C33.2326 13.6785 34.3745 11.3086 34.3745 8.74986C34.3745 8.05987 33.8145 7.49988 33.1245 7.49988C29.6783 7.49988 26.8746 4.69618 26.8746 1.24998C26.8746 0.559991 26.3146 0 25.6246 0C21.2009 0 17.5429 3.30245 16.9641 7.56926C12.6842 8.02988 9.13111 10.9992 7.9305 15.1141C7.56988 15.0491 7.19176 14.9998 6.87489 14.9998C3.08433 14.9998 0 18.0841 0 21.8747C0 25.6652 3.08433 28.7496 6.87489 28.7496C7.56488 28.7496 8.12487 28.1896 8.12487 27.4996C8.12487 26.8096 7.56488 26.2496 6.87489 26.2496C4.46306 26.2496 2.49996 24.2865 2.49996 21.8747C2.49996 19.4628 4.46306 17.4997 6.87489 17.4997C7.04802 17.4997 7.32676 17.5422 7.62051 17.601V18.7497C7.62051 19.4397 8.17987 19.9997 8.87049 19.9997C9.5611 19.9997 10.1205 19.4397 10.1205 18.7497V16.7379C10.7911 12.8298 14.1429 9.99984 18.1247 9.99984C22.1059 9.99984 25.4577 12.8298 26.129 16.7385V18.7497C26.129 19.4397 26.689 19.9997 27.3789 19.9997C28.0689 19.9997 28.6289 19.4397 28.6289 18.7497V17.601C28.9227 17.5422 29.2014 17.4997 29.3745 17.4997C31.7864 17.4997 33.7495 19.4628 33.7495 21.8747C33.7495 24.2865 31.7864 26.2496 29.3745 26.2496C28.6839 26.2496 28.1246 26.8096 28.1246 27.4996C28.1246 28.1896 28.6839 28.7496 29.3745 28.7496C33.1651 28.7496 36.2494 25.6652 36.2494 21.8747C36.2494 18.7885 34.2045 16.1716 31.3995 15.3048ZM19.4834 7.59363C19.9578 5.0693 21.9534 3.07495 24.4796 2.60496C25.0634 6.34553 28.0264 9.30986 31.767 9.89485C31.3826 11.9236 29.992 13.6485 28.1033 14.4735C26.7565 10.7561 23.449 8.09487 19.4834 7.59363Z" fill="#AAAAAA"/>
<path d="M19.0528 22.5371C18.386 22.3696 17.7047 22.7771 17.5366 23.4465L13.7867 38.4463C13.6192 39.1163 14.0267 39.795 14.696 39.9625C14.7979 39.9881 14.8998 40 15.0004 40C15.5598 40 16.0698 39.6212 16.2116 39.0531L19.9616 24.0534C20.1297 23.3827 19.7228 22.704 19.0528 22.5371Z" fill="#AAAAAA"/>
<path d="M24.0528 26.2871C23.3846 26.1202 22.7046 26.5271 22.5365 27.1965L20.6616 34.6964C20.4941 35.3663 20.9016 36.0451 21.5709 36.2126C21.6728 36.2382 21.7747 36.2501 21.8753 36.2501C22.4347 36.2501 22.9446 35.8713 23.0865 35.3032L24.9615 27.8033C25.1296 27.1327 24.7227 26.454 24.0528 26.2871Z" fill="#AAAAAA"/>
<path d="M12.1779 26.2871C11.5098 26.1202 10.8298 26.5271 10.6617 27.1965L8.78674 34.6964C8.61924 35.3663 9.02674 36.0451 9.6961 36.2126C9.79797 36.2382 9.89985 36.2501 10.0005 36.2501C10.5598 36.2501 11.0698 35.8713 11.2117 35.3032L13.0867 27.8033C13.2548 27.1327 12.8479 26.454 12.1779 26.2871Z" fill="#AAAAAA"/>
</svg>
