<svg width="37" height="40" viewBox="0 0 37 40" fill="none" xmlns="http://www.w3.org/2000/svg">
<path d="M31.4 15.305C33.2331 13.6787 34.375 11.3087 34.375 8.75C34.375 8.06 33.815 7.5 33.125 7.5C29.6788 7.5 26.875 4.69625 26.875 1.25C26.875 0.56 26.315 0 25.625 0C21.2012 0 17.5431 3.3025 16.9644 7.56938C12.6844 8.03 9.13125 10.9994 7.93062 15.1144C7.57 15.0494 7.19188 15 6.875 15C3.08437 15 0 18.0844 0 21.875C0 25.6656 3.08437 28.75 6.875 28.75H13.9144L11.46 32.4319C11.2044 32.815 11.1806 33.3081 11.3975 33.715C11.6156 34.1213 12.0394 34.375 12.5 34.375H13.9144L11.46 38.0569C11.0775 38.6312 11.2325 39.4075 11.8069 39.79C12.0194 39.9325 12.2606 40 12.4988 40C12.9025 40 13.2988 39.8044 13.54 39.4431L17.29 33.8181C17.5456 33.435 17.5694 32.9419 17.3525 32.535C17.1344 32.1287 16.7106 31.875 16.25 31.875H14.8356L16.9187 28.75H20.1638L18.9594 30.5569C18.7037 30.94 18.68 31.4331 18.8969 31.84C19.1156 32.2463 19.5394 32.5 20 32.5H21.4144L20.21 34.3069C19.8275 34.8812 19.9825 35.6575 20.5569 36.04C20.7694 36.1825 21.0106 36.25 21.2488 36.25C21.6525 36.25 22.0488 36.0544 22.29 35.6931L24.79 31.9431C25.0456 31.56 25.0694 31.0669 24.8525 30.66C24.6344 30.2537 24.2106 30 23.75 30H22.3356L23.1687 28.75H29.375C33.1656 28.75 36.25 25.6656 36.25 21.875C36.25 18.7887 34.205 16.1719 31.4 15.305ZM24.48 2.605C25.0637 6.34562 28.0269 9.31 31.7675 9.895C31.3831 11.9238 29.9925 13.6488 28.1037 14.4738C26.7575 10.7563 23.4494 8.095 19.4837 7.59375C19.9581 5.06937 21.9537 3.075 24.48 2.605ZM29.375 26.25H6.875C4.46313 26.25 2.5 24.2869 2.5 21.875C2.5 19.4631 4.46313 17.5 6.875 17.5C7.04813 17.5 7.32688 17.5425 7.62063 17.6012V18.75C7.62063 19.44 8.18063 20 8.87063 20C9.56063 20 10.1206 19.44 10.1206 18.75V16.7381C10.7913 12.83 14.1431 10 18.125 10C22.1062 10 25.4581 12.83 26.1294 16.7388V18.75C26.1294 19.44 26.6894 20 27.3794 20C28.0694 20 28.6294 19.44 28.6294 18.75V17.6019C28.9231 17.5431 29.2038 17.5 29.375 17.5C31.7869 17.5 33.75 19.4631 33.75 21.875C33.75 24.2869 31.7869 26.25 29.375 26.25Z" fill="#AAAAAA"/>
</svg>
